<svg xmlns="http://www.w3.org/2000/svg" viewBox="0 0 64 64" width="64" height="64">
  <g fill="none" stroke="#111827" stroke-width="2.5" stroke-linecap="round" stroke-linejoin="round">
    <!-- Open book silhouette -->
    <path d="M8 16c6-4 14-6 24-6s18 2 24 6v32c-6-4-14-6-24-6s-18 2-24 6V16z"/>
    <!-- Center spine -->
    <line x1="32" y1="10" x2="32" y2="42"/>
    <!-- Top inner page curves -->
    <path d="M14 20c4-2 10-3 18-3M50 20c-4-2-10-3-18-3"/>
    <!-- Bottom baseline hints -->
    <path d="M32 42c10 0 18 2 24 6M32 42c-10 0-18 2-24 6"/>
  </g>
</svg>

